<svg width="220" height="171" viewBox="0 0 220 171" fill="none" xmlns="http://www.w3.org/2000/svg">
<path d="M0 0H220V71C220 126.228 175.228 171 120 171H100C44.7715 171 0 126.228 0 71V0Z" fill="#2D049A"/>
<path d="M50.2088 63.364L50.2808 66.424V85H48.5528V59.044H49.3448L66.3008 78.592C67.4528 79.96 68.3408 81.052 68.9648 81.868C68.8688 80.716 68.8208 79.396 68.8208 77.908V59.26H70.5488V85.216H69.7568L52.4768 65.308C51.2768 63.94 50.5088 63.028 50.1728 62.572L50.2088 63.364ZM89.9528 85.36C86.6168 85.36 83.8208 84.196 81.5648 81.868C79.3088 79.54 78.1808 76.696 78.1808 73.336C78.1808 69.952 79.3088 67.096 81.5648 64.768C83.8208 62.44 86.6168 61.276 89.9528 61.276C93.2888 61.276 96.0848 62.44 98.3408 64.768C100.597 67.096 101.725 69.952 101.725 73.336C101.725 76.696 100.597 79.54 98.3408 81.868C96.0848 84.196 93.2888 85.36 89.9528 85.36ZM89.9528 62.752C87.0728 62.752 84.6728 63.772 82.7528 65.812C80.8568 67.852 79.9088 70.36 79.9088 73.336C79.9088 76.288 80.8568 78.784 82.7528 80.824C84.6728 82.84 87.0728 83.848 89.9528 83.848C92.8568 83.848 95.2568 82.84 97.1528 80.824C99.0488 78.784 99.9968 76.288 99.9968 73.336C99.9968 70.36 99.0488 67.852 97.1528 65.812C95.2568 63.772 92.8568 62.752 89.9528 62.752ZM122.346 85V59.26H135.486V60.772H124.074V70.24H134.514V71.716H124.074V85H122.346ZM141.171 76.9L137.823 85H136.131L145.923 61.492H146.895L156.759 85H154.923L151.539 76.9H141.171ZM146.319 64.156C145.959 65.236 145.635 66.136 145.347 66.856L141.747 75.496H150.963L147.399 66.892C146.847 65.548 146.487 64.636 146.319 64.156ZM161.5 85V61.78C163.3 61.588 165.196 61.492 167.188 61.492C169.204 61.492 170.908 62.032 172.3 63.112C173.692 64.168 174.388 65.776 174.388 67.936C174.388 70.096 173.44 71.872 171.544 73.264C169.648 74.632 167.404 75.316 164.812 75.316C164.692 75.316 164.56 75.316 164.416 75.316V74.164C164.512 74.164 164.596 74.164 164.668 74.164C166.804 74.164 168.664 73.6 170.248 72.472C171.832 71.344 172.624 69.88 172.624 68.08C172.624 66.28 172.06 64.972 170.932 64.156C169.828 63.34 168.364 62.932 166.54 62.932C165.58 62.932 164.452 62.98 163.156 63.076V85H161.5ZM89.5501 111.15C91.6834 111.15 93.3918 110.575 94.6751 109.425C95.9751 108.275 96.6251 106.542 96.6251 104.225C96.6251 101.908 95.8918 100.067 94.4251 98.7C92.9751 97.3333 91.1834 96.65 89.0501 96.65C87.5334 96.65 86.3668 96.6833 85.5501 96.75V110.975C86.5501 111.092 87.8834 111.15 89.5501 111.15ZM89.0501 95.625C91.5501 95.625 93.6334 96.4 95.3001 97.95C96.9834 99.4833 97.8251 101.575 97.8251 104.225C97.8251 106.875 97.0501 108.867 95.5001 110.2C93.9668 111.533 91.9834 112.2 89.5501 112.2C87.8668 112.2 86.1334 112.117 84.3501 111.95V95.775C85.6834 95.675 87.2501 95.625 89.0501 95.625ZM103.339 106.375L101.014 112H99.8386L106.639 95.675H107.314L114.164 112H112.889L110.539 106.375H103.339ZM106.914 97.525C106.664 98.275 106.439 98.9 106.239 99.4L103.739 105.4H110.139L107.664 99.425C107.28 98.4917 107.03 97.8583 106.914 97.525ZM120.101 112H118.976V106.2L112.851 95.775H114.226L118.951 103.825C119.318 104.558 119.526 104.95 119.576 105C119.676 104.783 119.885 104.4 120.201 103.85L124.926 95.775H126.226L120.101 106.25V112ZM132.791 96.475C131.891 96.475 131.158 96.6917 130.591 97.125C130.024 97.5583 129.741 98.1667 129.741 98.95C129.741 99.85 130.116 100.658 130.866 101.375C131.399 101.892 132.083 102.442 132.916 103.025C133.766 103.592 134.349 104 134.666 104.25C134.983 104.5 135.366 104.842 135.816 105.275C136.633 106.092 137.041 107.033 137.041 108.1C137.041 109.483 136.574 110.533 135.641 111.25C134.724 111.95 133.433 112.3 131.766 112.3C130.116 112.3 128.733 111.867 127.616 111L128.216 110.125C129.349 110.892 130.549 111.275 131.816 111.275C133.083 111.275 134.066 111.008 134.766 110.475C135.483 109.942 135.841 109.192 135.841 108.225C135.841 107.392 135.483 106.625 134.766 105.925C134.266 105.425 133.591 104.883 132.741 104.3C131.908 103.717 131.324 103.3 130.991 103.05C130.658 102.783 130.266 102.433 129.816 102C128.966 101.15 128.541 100.167 128.541 99.05C128.541 97.9333 128.933 97.0583 129.716 96.425C130.516 95.7917 131.616 95.475 133.016 95.475C134.416 95.475 135.674 95.75 136.791 96.3L136.366 97.225C135.333 96.725 134.141 96.475 132.791 96.475ZM67.4707 138.2C66.2207 138.9 64.479 139.25 62.2457 139.25C60.029 139.25 58.0707 138.45 56.3707 136.85C54.6874 135.25 53.8457 133.267 53.8457 130.9C53.8457 128.517 54.579 126.525 56.0457 124.925C57.529 123.325 59.4374 122.525 61.7707 122.525C63.654 122.525 65.4957 122.817 67.2957 123.4L66.9957 124.35C65.2624 123.817 63.4707 123.55 61.6207 123.55C59.7707 123.55 58.2124 124.258 56.9457 125.675C55.6957 127.075 55.0707 128.8 55.0707 130.85C55.0707 132.883 55.7957 134.617 57.2457 136.05C58.7124 137.483 60.404 138.2 62.3207 138.2C64.2374 138.2 65.829 137.933 67.0957 137.4L67.4707 138.2ZM78.5002 139.25C76.1835 139.25 74.2419 138.442 72.6752 136.825C71.1085 135.208 70.3252 133.233 70.3252 130.9C70.3252 128.55 71.1085 126.567 72.6752 124.95C74.2419 123.333 76.1835 122.525 78.5002 122.525C80.8169 122.525 82.7585 123.333 84.3252 124.95C85.8919 126.567 86.6752 128.55 86.6752 130.9C86.6752 133.233 85.8919 135.208 84.3252 136.825C82.7585 138.442 80.8169 139.25 78.5002 139.25ZM78.5002 123.55C76.5002 123.55 74.8335 124.258 73.5002 125.675C72.1835 127.092 71.5252 128.833 71.5252 130.9C71.5252 132.95 72.1835 134.683 73.5002 136.1C74.8335 137.5 76.5002 138.2 78.5002 138.2C80.5169 138.2 82.1835 137.5 83.5002 136.1C84.8169 134.683 85.4752 132.95 85.4752 130.9C85.4752 128.833 84.8169 127.092 83.5002 125.675C82.1835 124.258 80.5169 123.55 78.5002 123.55ZM103.237 137.325C102.137 138.608 100.462 139.25 98.2115 139.25C95.9615 139.25 94.2865 138.608 93.1865 137.325C92.0865 136.042 91.5365 134.267 91.5365 132V122.775H92.6865V132C92.6865 136.15 94.5282 138.225 98.2115 138.225C101.895 138.225 103.737 136.15 103.737 132V122.775H104.887V132C104.887 134.267 104.337 136.042 103.237 137.325ZM110.729 139V122.675H111.279L121.929 134.925C122.313 135.358 122.663 135.792 122.979 136.225C123.313 136.642 123.488 136.858 123.504 136.875C123.471 136.475 123.454 135.692 123.454 134.525V122.775H124.604V139.1H124.054L113.204 126.65L111.829 124.975C111.863 125.308 111.879 126.092 111.879 127.325V139H110.729ZM133.503 123.8H128.003V122.775H140.128V123.8H134.628V139H133.503V123.8ZM143.518 139V122.775H151.093V123.775H144.668V129.675H150.468V130.65H144.668V137.95H151.343V139H143.518ZM155.944 139V122.85C157.378 122.733 158.594 122.675 159.594 122.675C161.128 122.675 162.394 123.075 163.394 123.875C164.394 124.658 164.894 125.783 164.894 127.25C164.894 128.233 164.611 129.142 164.044 129.975C163.478 130.808 162.836 131.483 162.119 132C164.103 134.633 165.328 136.208 165.794 136.725C166.744 137.708 167.778 138.267 168.894 138.4L168.869 139.175C167.936 139.158 167.178 139.025 166.594 138.775C166.011 138.508 165.428 138.067 164.844 137.45C164.278 136.833 163.019 135.175 161.069 132.475C159.719 132.475 158.394 132.433 157.094 132.35V139H155.944ZM160.444 131.525C161.094 131.525 161.794 131.092 162.544 130.225C163.294 129.358 163.669 128.35 163.669 127.2C163.669 126.05 163.278 125.175 162.494 124.575C161.711 123.975 160.694 123.675 159.444 123.675C158.778 123.675 157.994 123.708 157.094 123.775V131.4C158.294 131.483 159.411 131.525 160.444 131.525Z" fill="white"/>
</svg>
